<?xml version="1.0" encoding="UTF-8" standalone="no"?>
<!-- Created with Inkscape (http://www.inkscape.org/) -->

<svg
        width="282.13855mm"
        height="282.05713mm"
        viewBox="0 0 282.13855 282.05713"
        version="1.1"
        id="svg5"
        xml:space="preserve"
        xmlns="http://www.w3.org/2000/svg"
><defs
     id="defs2"><linearGradient
       id="linearGradient135023"><stop
         style="stop-color:#000000;stop-opacity:1;"
         offset="0"
         id="stop135021" /></linearGradient></defs><g
     id="layer1"
     transform="translate(185.20633,-70.808538)"><path
       style="fill:#000000;fill-opacity:0;stroke-width:0.340515"
       d="m 245.57841,365.6283 c -3.08051,-4.007 -7.38796,-11.52144 -7.38796,-12.88846 0,-0.44844 2.41239,-2.10902 5.61851,-3.86752 3.84205,-2.10731 5.6185,-3.22292 5.6185,-3.52841 0,-0.41462 -0.85401,-0.18809 -8.34263,2.21297 -7.16855,2.29843 -13.64752,3.99843 -18.55808,4.86942 -4.32149,0.7665 -16.26213,1.07123 -21.62272,0.55182 -9.91848,-0.96105 -13.37485,-1.71965 -24.19724,-5.31081 -6.6013,-2.19049 -8.57416,-2.65375 -8.70574,-2.04428 -0.0404,0.18728 2.01997,1.42642 4.57867,2.75363 5.7127,2.9632 6.14082,3.3178 5.92733,4.90953 -0.32642,2.4336 -4.26096,9.53055 -7.03591,12.69104 -1.36048,1.54949 -2.02357,1.59216 -5.878,0.37822 -11.49329,-3.61978 -23.86994,-10.05758 -33.65326,-17.50498 -3.05012,-2.32186 -3.23819,-2.71209 -3.5248,-7.31362 -0.40632,-6.52351 0.64135,-29.23096 1.67877,-36.38596 0.50552,-3.48657 2.77358,-11.85991 4.75211,-17.54407 4.31813,-12.40568 13.3062,-30.23768 17.20741,-34.1389 1.9158,-1.9158 4.69132,-3.36374 10.8832,-5.67757 7.53698,-2.81649 19.10575,-5.85423 22.29491,-5.85423 1.35561,0 2.69222,1.49622 4.23302,4.73848 l 1.47005,3.09337 h 14.38107 c 7.90958,0 15.99453,-0.0987 17.96654,-0.21938 l 3.58547,-0.21938 1.10985,-2.85318 c 1.28618,-3.30653 2.45757,-4.53991 4.31172,-4.53991 4.25164,0 20.64652,4.84015 28.27216,8.34659 4.4,2.02322 6.42883,4.48968 12.05078,14.65021 6.67046,12.05549 11.15047,24.12673 13.94962,37.58681 1.84209,8.85794 2.07348,11.8076 2.26468,28.86947 l 0.17629,15.73151 -3.86855,2.53534 c -7.60664,4.98518 -18.07268,10.62556 -25.95998,13.99039 -3.20366,1.36672 -10.90353,3.93983 -11.78971,3.93983 -0.16546,0 -0.9782,-0.88109 -1.80608,-1.95797 z m -58.7514,-41.04208 c 2.28904,-1.12411 4.30364,-2.99763 5.89006,-5.47761 1.89917,-2.96888 2.32143,-4.75074 2.16775,-9.14775 -0.12175,-3.48371 -0.23564,-4.04741 -1.235,-6.11271 -1.25493,-2.59343 -4.30731,-5.90741 -6.37566,-6.92207 -1.94336,-0.95334 -6.99173,-1.12218 -9.42165,-0.31509 -4.39805,1.4608 -9.12718,8.85953 -9.12718,14.27948 0,1.95225 0.85484,5.07539 2.07625,7.58552 1.17376,2.41221 4.01746,5.05065 6.94463,6.44333 2.436,1.159 6.33351,1.01604 9.0808,-0.3331 z m 53.34952,-0.0931 c 2.89286,-1.44723 5.35861,-4.0278 6.97086,-7.29546 1.04136,-2.11058 1.08826,-2.38211 1.08826,-6.29953 0,-3.90634 -0.0503,-4.20015 -1.09867,-6.41351 -1.37574,-2.90457 -4.7102,-6.48654 -7.07369,-7.59875 -2.44045,-1.14843 -7.08306,-1.14989 -9.54595,-0.003 -2.24979,1.04765 -5.15325,4.27396 -6.84474,7.60586 -1.30304,2.56672 -1.31611,2.63165 -1.31611,6.54018 0,3.82433 0.038,4.02753 1.21748,6.50158 1.44043,3.02153 3.946,5.50843 7.17592,7.12244 1.76378,0.88137 2.49501,1.04993 4.55482,1.04993 2.13041,0 2.77235,-0.1594 4.87182,-1.20972 z"
       id="path132763"
       transform="scale(0.26458333)" /><path
       style="fill:#000000;fill-opacity:0;stroke-width:0.236724"
       d="m 245.42591,365.52281 c -2.14695,-2.77011 -4.0196,-5.72731 -5.55775,-8.77655 -1.69087,-3.35199 -1.91277,-4.04146 -1.44972,-4.50451 0.64208,-0.64208 2.96736,-2.12963 5.17056,-3.30778 3.25564,-1.74093 5.79973,-3.26764 5.79973,-3.48044 0,-0.47598 -1.28419,-0.13484 -9.14718,2.42994 -7.86171,2.56437 -14.95385,4.29663 -20.44332,4.99329 -1.63783,0.20786 -5.23075,0.31545 -10.53421,0.31545 -7.0397,0 -8.58275,-0.0689 -12.30965,-0.54971 -7.67563,-0.99022 -11.82735,-2.00058 -20.31546,-4.94394 -4.00693,-1.38946 -7.55987,-2.43661 -8.2673,-2.43661 -0.72688,0 -0.449,0.57085 0.59057,1.21323 0.55311,0.34178 2.55028,1.36729 4.43815,2.27892 1.95468,0.94388 3.88081,2.05691 4.47378,2.5852 l 1.04129,0.9277 -0.295,1.22969 c -0.73108,3.04747 -5.11538,10.54716 -7.56416,12.93907 l -1.19846,1.17063 -2.74383,-0.75586 c -4.95764,-1.36573 -13.65793,-4.8485 -18.56964,-7.43352 -8.24442,-4.33902 -19.01924,-11.67873 -19.67946,-13.40546 -0.896,-2.34337 -0.51886,-23.67937 0.63881,-36.13983 0.62028,-6.67625 1.05943,-8.66268 4.16051,-18.81956 3.87013,-12.67576 13.54132,-32.57881 18.24952,-37.55703 1.49309,-1.57873 3.18193,-2.6223 6.47963,-4.00391 8.06804,-3.38021 18.87415,-6.55711 25.25531,-7.42483 3.12457,-0.42489 3.81324,0.14634 6.09947,5.0593 l 1.2806,2.75193 17.16627,-0.13837 c 9.44146,-0.0761 17.48637,-0.18604 17.87759,-0.24429 0.62508,-0.0931 0.77957,-0.28529 1.27432,-1.58559 1.73133,-4.55025 2.54048,-5.68228 4.27049,-5.97456 3.42976,-0.57945 22.67516,5.08164 29.91968,8.80097 3.5525,1.82385 5.25586,3.80869 9.2048,10.72588 8.36984,14.66109 12.88191,26.4059 16.04481,41.76421 1.73687,8.43382 2.13498,14.21383 2.13498,30.99662 v 13.06872 l -3.21897,2.08944 c -10.24071,6.64724 -21.36913,12.49405 -29.68566,15.59667 -1.85895,0.6935 -8.54488,2.79373 -8.80274,2.76517 -0.0409,-0.005 -0.84569,-1.00339 -1.78836,-2.21968 z M 183.7872,325.61936 c 1.70452,-0.32326 4.43925,-1.7121 5.91749,-3.00523 2.3765,-2.0789 4.49324,-5.57998 5.01302,-8.29152 0.43773,-2.28347 0.17472,-7.16829 -0.48637,-9.0334 -1.08046,-3.04826 -4.48304,-7.10891 -6.96267,-8.30928 -2.32594,-1.12597 -7.01559,-1.24004 -9.69931,-0.23593 -2.40537,0.89996 -5.7735,4.60827 -7.37916,8.12444 -1.81483,3.97422 -1.69956,8.52674 0.32917,13.00102 0.92784,2.04631 1.68607,2.98419 3.795,4.69417 3.48557,2.82619 6.15041,3.68581 9.47283,3.05573 z m 55.17065,-0.57271 c 2.85988,-1.16207 4.88593,-2.7963 6.63382,-5.35089 1.22887,-1.79603 2.01743,-3.43347 2.39404,-4.9712 0.41573,-1.69749 0.42183,-6.1551 0.0107,-7.81189 -0.53161,-2.14225 -2.06715,-4.8254 -3.86052,-6.74572 -2.31258,-2.47629 -4.00509,-3.55184 -6.16162,-3.91559 -2.05374,-0.34641 -5.29237,-0.17519 -6.83812,0.36151 -3.3317,1.1568 -7.69667,6.8112 -8.61921,11.16538 -0.75503,3.56353 -0.34825,6.71144 1.31466,10.17381 0.77216,1.60772 1.25779,2.23707 2.94241,3.81322 4.14655,3.87954 8.09481,4.9429 12.18384,3.28137 z"
       id="path132765"
       transform="scale(0.26458333)" /><g
       id="g135370"
       transform="translate(-161.29649,97.32072)"><path
         style="fill:#fdfafa;stroke-width:0.352778"
         d="m 35.527163,176.37392 c -5.086008,-1.7892 -4.791188,2.18838 -4.680839,-63.15216 l 0.09473,-56.091669 0.587262,-1.058334 c 0.78813,-1.420326 2.713016,-3.222343 3.933621,-3.682531 1.797371,-0.677633 161.865633,-0.509644 163.496053,0.171591 1.6632,0.69493 2.79512,1.753814 3.64379,3.408691 l 0.67122,1.308862 v 57.08931 57.0893 l -0.79375,1.56934 c -0.46406,0.91751 -1.42911,2.01088 -2.32341,2.63239 l -1.52967,1.06305 -80.84395,0.0743 c -68.724002,0.0632 -81.055494,-1.3e-4 -82.255055,-0.42212 z M 175.69754,162.09854 c -0.16759,-0.47845 -40.873,-36.70595 -41.243,-36.70595 -0.16855,0 -3.20803,2.53717 -6.75441,5.63815 -10.57292,9.24504 -10.58877,9.24518 -20.93368,0.18826 -3.43863,-3.0105 -6.46189,-5.47363 -6.71836,-5.47363 -0.474903,0 -40.787678,35.74258 -41.002406,36.35404 -0.07389,0.21041 21.602259,0.33485 58.325926,0.33485 36.83026,0 58.40003,-0.12416 58.32593,-0.33572 z M 67.49517,135.49949 C 79.210959,125.05098 88.840851,116.31683 88.894928,116.09026 88.949002,115.86369 80.554094,108.29933 70.23957,99.280591 45.3451,77.513517 45.58895,77.721243 45.207626,77.956913 c -0.372195,0.230029 -0.477884,76.452607 -0.106525,76.823967 0.366913,0.36692 0.242827,0.47376 22.394069,-19.28139 z m 121.66672,-19.45551 c 0,-21.052013 -0.11906,-38.27568 -0.26458,-38.274816 -0.47933,0.0028 -43.51944,37.803426 -43.41023,38.125626 0.18978,0.5599 42.77785,38.39833 43.23384,38.41219 0.35015,0.0106 0.44097,-7.86993 0.44097,-38.263 z M 147.21952,95.283911 c 16.18032,-14.134426 29.47167,-25.842239 29.53635,-26.017361 0.0696,-0.18856 -24.21876,-0.318404 -59.56065,-0.318404 -42.201045,0 -59.641423,0.110455 -59.55252,0.377162 0.264795,0.794385 59.04415,51.840522 59.59071,51.750752 0.31205,-0.0513 13.8058,-11.65772 29.98611,-25.792149 z"
         id="path135374" /><path
         style="fill:#bf0101;stroke-width:0.352778"
         d="M 108.37578,255.21051 C -12.769686,246.84067 -68.115532,100.39256 17.507888,14.769148 96.612179,-64.335147 232.49006,-23.795299 255.26473,85.705091 274.12854,176.40213 200.32989,261.56354 108.37578,255.21051 Z m 91.78006,-79.5518 c 0.8943,-0.62151 1.85935,-1.71488 2.32341,-2.63239 l 0.79375,-1.56934 v -57.0893 -57.08931 l -0.67122,-1.308862 c -0.84867,-1.654877 -1.98059,-2.713761 -3.64379,-3.408691 -1.63042,-0.681235 -161.698684,-0.849224 -163.496055,-0.171591 -1.220605,0.460188 -3.145491,2.262205 -3.933621,3.682531 l -0.587262,1.058334 -0.09473,56.091669 c -0.103374,61.21034 -0.180569,58.80858 1.967167,61.20335 2.379803,2.65355 -4.792536,2.45341 84.968731,2.37093 l 80.84395,-0.0743 z M 59.045684,162.09941 c 0.214728,-0.61146 40.527503,-36.35404 41.002406,-36.35404 0.25647,0 3.27973,2.46313 6.71836,5.47363 10.34491,9.05692 10.36076,9.05678 20.93368,-0.18826 3.54638,-3.10098 6.58586,-5.63815 6.75441,-5.63815 0.37,0 41.07541,36.2275 41.243,36.70595 0.0741,0.21156 -21.49567,0.33572 -58.32593,0.33572 -36.723667,0 -58.399819,-0.12444 -58.325926,-0.33485 z m -13.944583,-7.31853 c -0.371359,-0.37136 -0.26567,-76.593938 0.106525,-76.823967 0.381324,-0.23567 0.137474,-0.443396 25.031944,21.323678 10.314524,9.018739 18.709432,16.583099 18.655358,16.809669 -0.229316,0.96082 -43.391258,39.09319 -43.793827,38.69062 z M 166.93689,135.25166 c -11.73868,-10.47306 -21.39109,-19.18365 -21.44981,-19.35687 -0.10921,-0.3222 42.9309,-38.122772 43.41023,-38.125626 0.14552,-8.64e-4 0.26458,17.222803 0.26458,38.274816 0,30.39307 -0.0908,38.27363 -0.44097,38.263 -0.24254,-0.007 -10.04535,-8.58227 -21.78403,-19.05532 z M 87.217237,95.43586 C 71.020387,81.282496 57.711845,69.532749 57.6427,69.325308 c -0.0889,-0.266707 17.351475,-0.377162 59.55252,-0.377162 35.34189,0 59.63029,0.129844 59.56065,0.318404 -0.21947,0.594243 -58.95147,51.71572 -59.52246,51.80951 -0.3283,0.0539 -12.97575,-10.74969 -30.016173,-25.6402 z"
         id="path135372" /></g></g></svg>
