<?xml version="1.0" encoding="UTF-8" standalone="no"?>
<!-- Created with Inkscape (http://www.inkscape.org/) -->

<svg
   width="71.55748mm"
   height="71.611366mm"
   viewBox="0 0 71.55748 71.611366"
   version="1.1"
   id="svg5"
   xml:space="preserve"
   xmlns:inkscape="http://www.inkscape.org/namespaces/inkscape"
   xmlns:sodipodi="http://sodipodi.sourceforge.net/DTD/sodipodi-0.dtd"
   xmlns="http://www.w3.org/2000/svg"
   xmlns:svg="http://www.w3.org/2000/svg"><sodipodi:namedview
     id="namedview7"
     pagecolor="#ffffff"
     bordercolor="#000000"
     borderopacity="0.25"
     inkscape:showpageshadow="2"
     inkscape:pageopacity="0.0"
     inkscape:pagecheckerboard="0"
     inkscape:deskcolor="#d1d1d1"
     inkscape:document-units="mm"
     showgrid="false" /><defs
     id="defs2"><linearGradient
       id="linearGradient135023"
       inkscape:swatch="solid"><stop
         style="stop-color:#000000;stop-opacity:1;"
         offset="0"
         id="stop135021" /></linearGradient></defs><g
     inkscape:label="Calque 1"
     inkscape:groupmode="layer"
     id="layer1"
     transform="translate(18.125979,-47.262438)"><path
       style="fill:#000000;fill-opacity:0;stroke-width:0.340515"
       d="m 245.57841,365.6283 c -3.08051,-4.007 -7.38796,-11.52144 -7.38796,-12.88846 0,-0.44844 2.41239,-2.10902 5.61851,-3.86752 3.84205,-2.10731 5.6185,-3.22292 5.6185,-3.52841 0,-0.41462 -0.85401,-0.18809 -8.34263,2.21297 -7.16855,2.29843 -13.64752,3.99843 -18.55808,4.86942 -4.32149,0.7665 -16.26213,1.07123 -21.62272,0.55182 -9.91848,-0.96105 -13.37485,-1.71965 -24.19724,-5.31081 -6.6013,-2.19049 -8.57416,-2.65375 -8.70574,-2.04428 -0.0404,0.18728 2.01997,1.42642 4.57867,2.75363 5.7127,2.9632 6.14082,3.3178 5.92733,4.90953 -0.32642,2.4336 -4.26096,9.53055 -7.03591,12.69104 -1.36048,1.54949 -2.02357,1.59216 -5.878,0.37822 -11.49329,-3.61978 -23.86994,-10.05758 -33.65326,-17.50498 -3.05012,-2.32186 -3.23819,-2.71209 -3.5248,-7.31362 -0.40632,-6.52351 0.64135,-29.23096 1.67877,-36.38596 0.50552,-3.48657 2.77358,-11.85991 4.75211,-17.54407 4.31813,-12.40568 13.3062,-30.23768 17.20741,-34.1389 1.9158,-1.9158 4.69132,-3.36374 10.8832,-5.67757 7.53698,-2.81649 19.10575,-5.85423 22.29491,-5.85423 1.35561,0 2.69222,1.49622 4.23302,4.73848 l 1.47005,3.09337 h 14.38107 c 7.90958,0 15.99453,-0.0987 17.96654,-0.21938 l 3.58547,-0.21938 1.10985,-2.85318 c 1.28618,-3.30653 2.45757,-4.53991 4.31172,-4.53991 4.25164,0 20.64652,4.84015 28.27216,8.34659 4.4,2.02322 6.42883,4.48968 12.05078,14.65021 6.67046,12.05549 11.15047,24.12673 13.94962,37.58681 1.84209,8.85794 2.07348,11.8076 2.26468,28.86947 l 0.17629,15.73151 -3.86855,2.53534 c -7.60664,4.98518 -18.07268,10.62556 -25.95998,13.99039 -3.20366,1.36672 -10.90353,3.93983 -11.78971,3.93983 -0.16546,0 -0.9782,-0.88109 -1.80608,-1.95797 z m -58.7514,-41.04208 c 2.28904,-1.12411 4.30364,-2.99763 5.89006,-5.47761 1.89917,-2.96888 2.32143,-4.75074 2.16775,-9.14775 -0.12175,-3.48371 -0.23564,-4.04741 -1.235,-6.11271 -1.25493,-2.59343 -4.30731,-5.90741 -6.37566,-6.92207 -1.94336,-0.95334 -6.99173,-1.12218 -9.42165,-0.31509 -4.39805,1.4608 -9.12718,8.85953 -9.12718,14.27948 0,1.95225 0.85484,5.07539 2.07625,7.58552 1.17376,2.41221 4.01746,5.05065 6.94463,6.44333 2.436,1.159 6.33351,1.01604 9.0808,-0.3331 z m 53.34952,-0.0931 c 2.89286,-1.44723 5.35861,-4.0278 6.97086,-7.29546 1.04136,-2.11058 1.08826,-2.38211 1.08826,-6.29953 0,-3.90634 -0.0503,-4.20015 -1.09867,-6.41351 -1.37574,-2.90457 -4.7102,-6.48654 -7.07369,-7.59875 -2.44045,-1.14843 -7.08306,-1.14989 -9.54595,-0.003 -2.24979,1.04765 -5.15325,4.27396 -6.84474,7.60586 -1.30304,2.56672 -1.31611,2.63165 -1.31611,6.54018 0,3.82433 0.038,4.02753 1.21748,6.50158 1.44043,3.02153 3.946,5.50843 7.17592,7.12244 1.76378,0.88137 2.49501,1.04993 4.55482,1.04993 2.13041,0 2.77235,-0.1594 4.87182,-1.20972 z"
       id="path132763"
       transform="scale(0.26458333)" /><path
       style="fill:#000000;fill-opacity:0;stroke-width:0.236724"
       d="m 245.42591,365.52281 c -2.14695,-2.77011 -4.0196,-5.72731 -5.55775,-8.77655 -1.69087,-3.35199 -1.91277,-4.04146 -1.44972,-4.50451 0.64208,-0.64208 2.96736,-2.12963 5.17056,-3.30778 3.25564,-1.74093 5.79973,-3.26764 5.79973,-3.48044 0,-0.47598 -1.28419,-0.13484 -9.14718,2.42994 -7.86171,2.56437 -14.95385,4.29663 -20.44332,4.99329 -1.63783,0.20786 -5.23075,0.31545 -10.53421,0.31545 -7.0397,0 -8.58275,-0.0689 -12.30965,-0.54971 -7.67563,-0.99022 -11.82735,-2.00058 -20.31546,-4.94394 -4.00693,-1.38946 -7.55987,-2.43661 -8.2673,-2.43661 -0.72688,0 -0.449,0.57085 0.59057,1.21323 0.55311,0.34178 2.55028,1.36729 4.43815,2.27892 1.95468,0.94388 3.88081,2.05691 4.47378,2.5852 l 1.04129,0.9277 -0.295,1.22969 c -0.73108,3.04747 -5.11538,10.54716 -7.56416,12.93907 l -1.19846,1.17063 -2.74383,-0.75586 c -4.95764,-1.36573 -13.65793,-4.8485 -18.56964,-7.43352 -8.24442,-4.33902 -19.01924,-11.67873 -19.67946,-13.40546 -0.896,-2.34337 -0.51886,-23.67937 0.63881,-36.13983 0.62028,-6.67625 1.05943,-8.66268 4.16051,-18.81956 3.87013,-12.67576 13.54132,-32.57881 18.24952,-37.55703 1.49309,-1.57873 3.18193,-2.6223 6.47963,-4.00391 8.06804,-3.38021 18.87415,-6.55711 25.25531,-7.42483 3.12457,-0.42489 3.81324,0.14634 6.09947,5.0593 l 1.2806,2.75193 17.16627,-0.13837 c 9.44146,-0.0761 17.48637,-0.18604 17.87759,-0.24429 0.62508,-0.0931 0.77957,-0.28529 1.27432,-1.58559 1.73133,-4.55025 2.54048,-5.68228 4.27049,-5.97456 3.42976,-0.57945 22.67516,5.08164 29.91968,8.80097 3.5525,1.82385 5.25586,3.80869 9.2048,10.72588 8.36984,14.66109 12.88191,26.4059 16.04481,41.76421 1.73687,8.43382 2.13498,14.21383 2.13498,30.99662 v 13.06872 l -3.21897,2.08944 c -10.24071,6.64724 -21.36913,12.49405 -29.68566,15.59667 -1.85895,0.6935 -8.54488,2.79373 -8.80274,2.76517 -0.0409,-0.005 -0.84569,-1.00339 -1.78836,-2.21968 z M 183.7872,325.61936 c 1.70452,-0.32326 4.43925,-1.7121 5.91749,-3.00523 2.3765,-2.0789 4.49324,-5.57998 5.01302,-8.29152 0.43773,-2.28347 0.17472,-7.16829 -0.48637,-9.0334 -1.08046,-3.04826 -4.48304,-7.10891 -6.96267,-8.30928 -2.32594,-1.12597 -7.01559,-1.24004 -9.69931,-0.23593 -2.40537,0.89996 -5.7735,4.60827 -7.37916,8.12444 -1.81483,3.97422 -1.69956,8.52674 0.32917,13.00102 0.92784,2.04631 1.68607,2.98419 3.795,4.69417 3.48557,2.82619 6.15041,3.68581 9.47283,3.05573 z m 55.17065,-0.57271 c 2.85988,-1.16207 4.88593,-2.7963 6.63382,-5.35089 1.22887,-1.79603 2.01743,-3.43347 2.39404,-4.9712 0.41573,-1.69749 0.42183,-6.1551 0.0107,-7.81189 -0.53161,-2.14225 -2.06715,-4.8254 -3.86052,-6.74572 -2.31258,-2.47629 -4.00509,-3.55184 -6.16162,-3.91559 -2.05374,-0.34641 -5.29237,-0.17519 -6.83812,0.36151 -3.3317,1.1568 -7.69667,6.8112 -8.61921,11.16538 -0.75503,3.56353 -0.34825,6.71144 1.31466,10.17381 0.77216,1.60772 1.25779,2.23707 2.94241,3.81322 4.14655,3.87954 8.09481,4.9429 12.18384,3.28137 z"
       id="path132765"
       transform="scale(0.26458333)" /><g
       id="g135041"
       transform="translate(6.6186201,1.1411414)"
       inkscape:export-filename="discord-icon.svg"
       inkscape:export-xdpi="96"
       inkscape:export-ydpi="96"><path
         style="fill:#5865f2;fill-opacity:1;stroke:none;stroke-width:0.282;stroke-dasharray:none;stroke-opacity:1"
         d="m 12.445251,117.70008 c -1.397,0.0721 -3.6194995,0.0205 -4.9388885,-0.11475 -1.319389,-0.13525 -3.616196,-0.55539 -5.104016,-0.93365 -1.48781903,-0.37825 -3.688153,-1.08136 -4.88963,-1.56245 -1.201476,-0.4811 -3.062222,-1.38733 -4.13499,-2.01387 -1.072767,-0.62653 -2.955688,-1.89659 -4.1842685,-2.82235 -1.22858,-0.92576 -3.137036,-2.6504 -4.241012,-3.83252 -1.103976,-1.18213 -2.761152,-3.27645 -3.682614,-4.65405 -0.921461,-1.3776 -2.111691,-3.426618 -2.644955,-4.553347 -0.533264,-1.12674 -1.294538,-3.08062 -1.69172,-4.34195 -0.397182,-1.26134 -0.937161,-3.42034 -1.199953,-4.79778 -0.295987,-1.55144 -0.477803,-3.900543 -0.477803,-6.173329 0,-2.272787 0.181816,-4.621892 0.477803,-6.173329 0.262792,-1.377443 0.802771,-3.536441 1.199953,-4.797778 0.397182,-1.261336 1.158456,-3.215214 1.69172,-4.341951 0.533264,-1.126736 1.750403,-3.222236 2.704754,-4.656667 0.962942,-1.447343 2.934934,-3.807805 4.430957,-5.303827 1.496022,-1.496023 3.856484,-3.468015 5.3038275,-4.430957 1.434431,-0.954351 3.529931,-2.17149 4.656667,-2.704754 1.126737,-0.533264 3.080615,-1.294538 4.34195097,-1.69172 1.26133703,-0.397182 3.42033503,-0.937161 4.79777803,-1.199953 1.551437,-0.295987 3.900542,-0.477803 6.1733285,-0.477803 2.272786,0 4.621891,0.181816 6.173329,0.477803 1.377442,0.262792 3.536442,0.802771 4.797778,1.199953 1.261336,0.397182 3.215214,1.158456 4.34195,1.69172 1.126736,0.533264 3.222236,1.750403 4.656667,2.704754 1.447343,0.962942 3.807805,2.934934 5.303828,4.430957 1.496023,1.496022 3.468018,3.856484 4.430958,5.303827 0.95435,1.434431 2.17149,3.529931 2.70475,4.656667 0.53327,1.126737 1.29454,3.080615 1.69172,4.341951 0.39719,1.261337 0.93717,3.420335 1.19996,4.797778 0.29598,1.551437 0.4778,3.900542 0.4778,6.173329 0,2.272786 -0.18182,4.621889 -0.4778,6.173329 -0.26279,1.37744 -0.80277,3.53644 -1.19996,4.79778 -0.39718,1.26133 -1.15845,3.21521 -1.69172,4.34195 -0.53326,1.126729 -1.7504,3.222237 -2.70475,4.656667 -0.96294,1.44735 -2.934935,3.80781 -4.430958,5.30383 -1.496023,1.49603 -3.856485,3.46802 -5.303828,4.43096 -1.434431,0.95435 -3.529931,2.17149 -4.656667,2.70475 -1.126736,0.53327 -3.080614,1.29454 -4.34195,1.69173 -1.261336,0.39718 -3.356836,0.91244 -4.656667,1.14501 -1.299831,0.23258 -3.506329,0.48189 -4.903329,0.55404 z M 0.74494547,98.399852 c 0.243224,0.006 0.90961903,-0.80074 1.51047203,-1.827879 0.591372,-1.01094 1.005156,-2.02066 0.91952,-2.24382 -0.08564,-0.22316 -0.800963,-0.68334 -1.589616,-1.02261 -0.78865303,-0.33927 -1.36959103,-0.68117 -1.29097303,-0.75979 0.07862,-0.0786 0.90920803,0.13645 1.84575603,0.47793 0.936548,0.34149 2.395095,0.8012 3.24122,1.02158 0.846122,0.22039 2.718148,0.48098 4.160055,0.5791 1.4915695,0.1015 3.5853255,0.0418 4.8572585,-0.13852 1.229586,-0.17431 3.34016,-0.69617 4.690164,-1.1597 1.350005,-0.46353 2.566481,-0.83667 2.70328,-0.8292 0.136799,0.008 -0.481525,0.3905 -1.374053,0.85119 -0.892527,0.46069 -1.622777,0.95058 -1.622777,1.08864 0,0.13807 0.270639,0.75807 0.601424,1.37778 0.330781,0.61971 0.87779,1.47334 1.215573,1.896959 l 0.61415,0.77022 1.536093,-0.44949 c 0.844852,-0.24722 2.615593,-0.999289 3.934982,-1.671279 1.319389,-0.67198 3.129139,-1.69625 4.021667,-2.27614 l 1.622778,-1.05436 v -4.34502 c 0,-3.15918 -0.149595,-5.103997 -0.548121,-7.125924 -0.301467,-1.529493 -0.88883,-3.729579 -1.305252,-4.88908 -0.416425,-1.159502 -1.136413,-2.870183 -1.599974,-3.801517 -0.463565,-0.931333 -1.291579,-2.4387 -1.840033,-3.349703 -0.841431,-1.39765 -1.238174,-1.762944 -2.54002,-2.338683 -0.848558,-0.375272 -2.622386,-0.995156 -3.941843,-1.377519 -1.319457,-0.382364 -2.75222,-0.695207 -3.183921,-0.695207 -0.637007,0 -0.860753,0.190147 -1.187391,1.009093 l -0.40248,1.009093 -4.696698,0.04924 -4.6966965,0.04924 -0.477204,-1.058333 c -0.332997,-0.738517 -0.656141,-1.057073 -1.06934,-1.054162 -0.325676,0.0023 -1.386583,0.191482 -2.357571,0.420418 -0.970988,0.228935 -2.77287703,0.804757 -4.004197,1.279604 -1.96957,0.759547 -2.345367,1.022894 -3.125334,2.190138 -0.487614,0.729729 -1.432315,2.46978 -2.099335,3.86678 -0.66702,1.397 -1.496432,3.408226 -1.843137,4.46939 -0.346706,1.061164 -0.815705,2.648664 -1.04222,3.527778 -0.242406,0.940788 -0.4762195,3.65913 -0.5683145,6.607304 -0.116875,3.74138 -0.06872,5.11464 0.1902925,5.42673 0.190719,0.22981 1.243997,1.00893 2.340617,1.73139 1.09662,0.72245 2.672287,1.62415 3.501481,2.00377 0.829194,0.37962 2.172915,0.929649 2.986047,1.222299 0.81313097,0.29265 1.67428297,0.53667 1.91367097,0.54227 z M 4.3754175,87.286343 c -0.667535,0.10001 -1.236873,-0.0285 -1.863166,-0.42045 -0.496038,-0.31046 -1.089893,-0.85628 -1.319677,-1.21294 -0.22978503,-0.35666 -0.50096803,-1.10419 -0.60262903,-1.661184 -0.119535,-0.654916 -0.03226,-1.377891 0.247032,-2.046323 0.23752903,-0.568488 0.77435603,-1.351017 1.19294903,-1.738957 0.574921,-0.532819 1.068543,-0.705344 2.01809,-0.705344 1.043754,0 1.413767,0.156755 2.18098,0.923967 0.614807,0.614807 0.991063,1.321091 1.124486,2.110817 0.116281,0.688258 0.06921,1.584709 -0.112048,2.133924 -0.17191,0.52089 -0.670803,1.29029 -1.108653,1.70978 -0.437848,0.41948 -1.228663,0.8275 -1.757364,0.90671 z m 14.1111115,0 c -0.667535,0.10001 -1.236873,-0.0285 -1.863167,-0.42045 -0.496036,-0.31046 -1.097441,-0.86292 -1.336449,-1.22769 -0.239008,-0.36478 -0.513512,-1.05797 -0.610004,-1.540434 -0.09649,-0.482465 -0.02495,-1.333195 0.158982,-1.890514 0.18393,-0.557318 0.715301,-1.394189 1.180823,-1.859709 0.683303,-0.683302 1.085131,-0.846401 2.085284,-0.846401 1.035059,0 1.398346,0.159464 2.208132,0.969247 0.643236,0.643238 1.034119,1.353219 1.162112,2.110816 0.108614,0.642869 0.05632,1.555305 -0.119696,2.088645 -0.17191,0.52089 -0.670802,1.29029 -1.108653,1.70978 -0.437848,0.41948 -1.228663,0.8275 -1.757364,0.90671 z"
         id="path132062" /><path
         style="fill:#ffffff;fill-opacity:1;stroke:none;stroke-width:0.459688;stroke-dasharray:none;stroke-opacity:1"
         d="m 79.107532,370.56126 c -3.019359,-3.71541 -7.727791,-11.88837 -7.727791,-13.41398 0,-0.56574 2.141505,-2.01413 8.847181,-5.98371 1.120968,-0.66359 1.948089,-1.29656 1.838043,-1.4066 -0.110045,-0.11005 -3.384098,0.78092 -7.275666,1.97993 -13.309544,4.10074 -19.404002,5.36883 -28.008625,5.82786 -11.360817,0.60607 -22.715307,-1.03443 -35.954649,-5.19473 -4.9575148,-1.55784 -9.2266163,-2.76145 -9.4868936,-2.6747 -0.55441617,0.18481 1.7269377,1.66361 6.0654795,3.93172 1.7003991,0.88893 3.4181191,1.977 3.8171561,2.41794 0.676485,0.74751 0.677577,0.94604 0.01613,2.93748 -0.833556,2.50959 -4.3961078,8.61311 -6.457145,11.06265 l -1.4447044,1.71702 -2.3274148,-0.48818 c -8.3074951,-1.74251 -25.0205178,-9.98241 -34.3251578,-16.92308 -5.219179,-3.89317 -4.989125,-3.42779 -5.202633,-10.52464 -0.216174,-7.18546 0.565036,-24.55354 1.441381,-32.04518 1.441008,-12.3188 9.388735,-33.49526 17.991761,-47.93847 3.847151,-6.4588 5.803801,-8.11525 12.8120175,-10.84632 9.1855898,-3.5796 19.9497965,-6.50973 23.9142915,-6.50973 2.269108,0 3.220896,0.93373 5.189954,5.09147 l 1.265371,2.67188 5.851039,-8.2e-4 c 3.21807,-4.7e-4 11.249218,-0.129 17.846992,-0.28565 l 11.995959,-0.28482 1.279353,-2.82156 c 1.808043,-3.98757 2.243317,-4.3705 4.967854,-4.3705 4.465671,0 20.366412,4.72849 27.617615,8.2128 5.178068,2.48814 7.07577,4.9495 13.80005,17.8989 5.24286,10.09655 8.8642,19.91136 11.56475,31.34356 2.26684,9.59622 2.48061,12.00009 2.70162,30.38036 l 0.20825,17.31847 -2.52374,1.6287 c -9.0023,5.80968 -20.587824,12.06126 -27.559266,14.87107 -3.20705,1.29259 -10.928639,3.87642 -11.409105,3.81777 -0.118606,-0.0145 -0.716863,-0.64309 -1.329457,-1.39691 z M 19.931203,328.71162 c 2.664289,-1.3501 5.500765,-4.41569 6.886692,-7.44295 0.969807,-2.11834 1.063644,-2.79917 0.931779,-6.76065 -0.121927,-3.66295 -0.328286,-4.76184 -1.224876,-6.52263 -1.264853,-2.48402 -4.047033,-5.47876 -6.054115,-6.51666 -1.932911,-0.99955 -5.880914,-1.2934 -8.603186,-0.64034 -2.9223129,0.70106 -6.2306453,3.91196 -8.2435868,8.00083 -1.2582523,2.55587 -1.4240142,3.30155 -1.4219038,6.3964 0.00198,2.90106 0.2059126,3.94808 1.1863916,6.09104 1.8318246,4.00368 5.2877168,7.13654 9.334879,8.46232 1.716551,0.56231 4.931378,0.0863 7.207926,-1.06736 z m 53.004858,0.17649 c 2.377515,-1.05169 5.647544,-4.36888 7.069631,-7.17159 0.946741,-1.86588 1.078244,-2.67735 1.078244,-6.65367 0,-4.08254 -0.114199,-4.74507 -1.159341,-6.72586 -1.363258,-2.5837 -4.393115,-5.82823 -6.422715,-6.87778 -1.880125,-0.97225 -6.149457,-1.29018 -8.591602,-0.63981 -2.497143,0.66501 -6.243989,4.40836 -8.007375,7.99989 -1.132458,2.30652 -1.264819,3.00834 -1.258828,6.67485 0.008,4.88488 0.928774,7.21279 4.119215,10.41404 4.155811,4.16989 8.34189,5.11686 13.172771,2.97993 z"
         id="path135037"
         transform="scale(0.26458333)" /></g></g></svg>
