<?xml version="1.0" encoding="UTF-8" standalone="no"?>
<!-- Created with Inkscape (http://www.inkscape.org/) -->

<svg
   width="116.11715mm"
   height="116.13918mm"
   viewBox="0 0 116.11715 116.13918"
   version="1.1"
   id="svg5"
   xml:space="preserve"
   xmlns:inkscape="http://www.inkscape.org/namespaces/inkscape"
   xmlns:sodipodi="http://sodipodi.sourceforge.net/DTD/sodipodi-0.dtd"
   xmlns="http://www.w3.org/2000/svg"
   xmlns:svg="http://www.w3.org/2000/svg"><sodipodi:namedview
     id="namedview7"
     pagecolor="#ffffff"
     bordercolor="#000000"
     borderopacity="0.25"
     inkscape:showpageshadow="2"
     inkscape:pageopacity="0.0"
     inkscape:pagecheckerboard="0"
     inkscape:deskcolor="#d1d1d1"
     inkscape:document-units="mm"
     showgrid="false" /><defs
     id="defs2"><linearGradient
       id="linearGradient135023"
       inkscape:swatch="solid"><stop
         style="stop-color:#000000;stop-opacity:1;"
         offset="0"
         id="stop135021" /></linearGradient></defs><g
     inkscape:label="Calque 1"
     inkscape:groupmode="layer"
     id="layer1"
     transform="translate(-0.0255193,-49.437083)"><path
       style="fill:#000000;fill-opacity:0;stroke-width:0.340515"
       d="m 245.57841,365.6283 c -3.08051,-4.007 -7.38796,-11.52144 -7.38796,-12.88846 0,-0.44844 2.41239,-2.10902 5.61851,-3.86752 3.84205,-2.10731 5.6185,-3.22292 5.6185,-3.52841 0,-0.41462 -0.85401,-0.18809 -8.34263,2.21297 -7.16855,2.29843 -13.64752,3.99843 -18.55808,4.86942 -4.32149,0.7665 -16.26213,1.07123 -21.62272,0.55182 -9.91848,-0.96105 -13.37485,-1.71965 -24.19724,-5.31081 -6.6013,-2.19049 -8.57416,-2.65375 -8.70574,-2.04428 -0.0404,0.18728 2.01997,1.42642 4.57867,2.75363 5.7127,2.9632 6.14082,3.3178 5.92733,4.90953 -0.32642,2.4336 -4.26096,9.53055 -7.03591,12.69104 -1.36048,1.54949 -2.02357,1.59216 -5.878,0.37822 -11.49329,-3.61978 -23.86994,-10.05758 -33.65326,-17.50498 -3.05012,-2.32186 -3.23819,-2.71209 -3.5248,-7.31362 -0.40632,-6.52351 0.64135,-29.23096 1.67877,-36.38596 0.50552,-3.48657 2.77358,-11.85991 4.75211,-17.54407 4.31813,-12.40568 13.3062,-30.23768 17.20741,-34.1389 1.9158,-1.9158 4.69132,-3.36374 10.8832,-5.67757 7.53698,-2.81649 19.10575,-5.85423 22.29491,-5.85423 1.35561,0 2.69222,1.49622 4.23302,4.73848 l 1.47005,3.09337 h 14.38107 c 7.90958,0 15.99453,-0.0987 17.96654,-0.21938 l 3.58547,-0.21938 1.10985,-2.85318 c 1.28618,-3.30653 2.45757,-4.53991 4.31172,-4.53991 4.25164,0 20.64652,4.84015 28.27216,8.34659 4.4,2.02322 6.42883,4.48968 12.05078,14.65021 6.67046,12.05549 11.15047,24.12673 13.94962,37.58681 1.84209,8.85794 2.07348,11.8076 2.26468,28.86947 l 0.17629,15.73151 -3.86855,2.53534 c -7.60664,4.98518 -18.07268,10.62556 -25.95998,13.99039 -3.20366,1.36672 -10.90353,3.93983 -11.78971,3.93983 -0.16546,0 -0.9782,-0.88109 -1.80608,-1.95797 z m -58.7514,-41.04208 c 2.28904,-1.12411 4.30364,-2.99763 5.89006,-5.47761 1.89917,-2.96888 2.32143,-4.75074 2.16775,-9.14775 -0.12175,-3.48371 -0.23564,-4.04741 -1.235,-6.11271 -1.25493,-2.59343 -4.30731,-5.90741 -6.37566,-6.92207 -1.94336,-0.95334 -6.99173,-1.12218 -9.42165,-0.31509 -4.39805,1.4608 -9.12718,8.85953 -9.12718,14.27948 0,1.95225 0.85484,5.07539 2.07625,7.58552 1.17376,2.41221 4.01746,5.05065 6.94463,6.44333 2.436,1.159 6.33351,1.01604 9.0808,-0.3331 z m 53.34952,-0.0931 c 2.89286,-1.44723 5.35861,-4.0278 6.97086,-7.29546 1.04136,-2.11058 1.08826,-2.38211 1.08826,-6.29953 0,-3.90634 -0.0503,-4.20015 -1.09867,-6.41351 -1.37574,-2.90457 -4.7102,-6.48654 -7.07369,-7.59875 -2.44045,-1.14843 -7.08306,-1.14989 -9.54595,-0.003 -2.24979,1.04765 -5.15325,4.27396 -6.84474,7.60586 -1.30304,2.56672 -1.31611,2.63165 -1.31611,6.54018 0,3.82433 0.038,4.02753 1.21748,6.50158 1.44043,3.02153 3.946,5.50843 7.17592,7.12244 1.76378,0.88137 2.49501,1.04993 4.55482,1.04993 2.13041,0 2.77235,-0.1594 4.87182,-1.20972 z"
       id="path132763"
       transform="scale(0.26458333)" /><path
       style="fill:#000000;fill-opacity:0;stroke-width:0.236724"
       d="m 245.42591,365.52281 c -2.14695,-2.77011 -4.0196,-5.72731 -5.55775,-8.77655 -1.69087,-3.35199 -1.91277,-4.04146 -1.44972,-4.50451 0.64208,-0.64208 2.96736,-2.12963 5.17056,-3.30778 3.25564,-1.74093 5.79973,-3.26764 5.79973,-3.48044 0,-0.47598 -1.28419,-0.13484 -9.14718,2.42994 -7.86171,2.56437 -14.95385,4.29663 -20.44332,4.99329 -1.63783,0.20786 -5.23075,0.31545 -10.53421,0.31545 -7.0397,0 -8.58275,-0.0689 -12.30965,-0.54971 -7.67563,-0.99022 -11.82735,-2.00058 -20.31546,-4.94394 -4.00693,-1.38946 -7.55987,-2.43661 -8.2673,-2.43661 -0.72688,0 -0.449,0.57085 0.59057,1.21323 0.55311,0.34178 2.55028,1.36729 4.43815,2.27892 1.95468,0.94388 3.88081,2.05691 4.47378,2.5852 l 1.04129,0.9277 -0.295,1.22969 c -0.73108,3.04747 -5.11538,10.54716 -7.56416,12.93907 l -1.19846,1.17063 -2.74383,-0.75586 c -4.95764,-1.36573 -13.65793,-4.8485 -18.56964,-7.43352 -8.24442,-4.33902 -19.01924,-11.67873 -19.67946,-13.40546 -0.896,-2.34337 -0.51886,-23.67937 0.63881,-36.13983 0.62028,-6.67625 1.05943,-8.66268 4.16051,-18.81956 3.87013,-12.67576 13.54132,-32.57881 18.24952,-37.55703 1.49309,-1.57873 3.18193,-2.6223 6.47963,-4.00391 8.06804,-3.38021 18.87415,-6.55711 25.25531,-7.42483 3.12457,-0.42489 3.81324,0.14634 6.09947,5.0593 l 1.2806,2.75193 17.16627,-0.13837 c 9.44146,-0.0761 17.48637,-0.18604 17.87759,-0.24429 0.62508,-0.0931 0.77957,-0.28529 1.27432,-1.58559 1.73133,-4.55025 2.54048,-5.68228 4.27049,-5.97456 3.42976,-0.57945 22.67516,5.08164 29.91968,8.80097 3.5525,1.82385 5.25586,3.80869 9.2048,10.72588 8.36984,14.66109 12.88191,26.4059 16.04481,41.76421 1.73687,8.43382 2.13498,14.21383 2.13498,30.99662 v 13.06872 l -3.21897,2.08944 c -10.24071,6.64724 -21.36913,12.49405 -29.68566,15.59667 -1.85895,0.6935 -8.54488,2.79373 -8.80274,2.76517 -0.0409,-0.005 -0.84569,-1.00339 -1.78836,-2.21968 z M 183.7872,325.61936 c 1.70452,-0.32326 4.43925,-1.7121 5.91749,-3.00523 2.3765,-2.0789 4.49324,-5.57998 5.01302,-8.29152 0.43773,-2.28347 0.17472,-7.16829 -0.48637,-9.0334 -1.08046,-3.04826 -4.48304,-7.10891 -6.96267,-8.30928 -2.32594,-1.12597 -7.01559,-1.24004 -9.69931,-0.23593 -2.40537,0.89996 -5.7735,4.60827 -7.37916,8.12444 -1.81483,3.97422 -1.69956,8.52674 0.32917,13.00102 0.92784,2.04631 1.68607,2.98419 3.795,4.69417 3.48557,2.82619 6.15041,3.68581 9.47283,3.05573 z m 55.17065,-0.57271 c 2.85988,-1.16207 4.88593,-2.7963 6.63382,-5.35089 1.22887,-1.79603 2.01743,-3.43347 2.39404,-4.9712 0.41573,-1.69749 0.42183,-6.1551 0.0107,-7.81189 -0.53161,-2.14225 -2.06715,-4.8254 -3.86052,-6.74572 -2.31258,-2.47629 -4.00509,-3.55184 -6.16162,-3.91559 -2.05374,-0.34641 -5.29237,-0.17519 -6.83812,0.36151 -3.3317,1.1568 -7.69667,6.8112 -8.61921,11.16538 -0.75503,3.56353 -0.34825,6.71144 1.31466,10.17381 0.77216,1.60772 1.25779,2.23707 2.94241,3.81322 4.14655,3.87954 8.09481,4.9429 12.18384,3.28137 z"
       id="path132765"
       transform="scale(0.26458333)" /><path
       style="fill:#3399db;fill-opacity:1;stroke-width:0.0846667"
       d="m 59.100096,165.55816 c -1.071033,0.0195 -2.290233,0.0239 -2.709333,0.01 -0.4191,-0.0141 -1.4478,-0.0689 -2.286,-0.12179 -0.8382,-0.0529 -2.26695,-0.18898 -3.175,-0.30238 -0.90805,-0.1134 -2.2987,-0.32119 -3.090333,-0.46175 -0.791634,-0.14057 -2.029884,-0.39111 -2.751667,-0.55675 -0.721783,-0.16565 -1.921933,-0.47021 -2.667,-0.6768 -0.745067,-0.20661 -1.888066,-0.55086 -2.54,-0.76503 -0.651933,-0.21416 -1.947333,-0.68602 -2.878666,-1.04858 -0.931334,-0.36256 -2.188634,-0.88558 -2.794,-1.16229 -0.605367,-0.2767 -1.653117,-0.77993 -2.328334,-1.11828 -0.675216,-0.33835 -1.799166,-0.94142 -2.497666,-1.34014 -0.6985,-0.39873 -1.853404,-1.09905 -2.566454,-1.55625 -0.71305,-0.45721 -1.800749,-1.18934 -2.41711,-1.62698 -0.61636,-0.43762 -1.595055,-1.1682 -2.174878,-1.6235 -0.579824,-0.45531 -1.606675,-1.306 -2.281891,-1.89042 -0.675217,-0.58442 -1.990186,-1.82511 -2.922153,-2.75707 -0.931968,-0.93197 -2.172652,-2.24694 -2.757075,-2.92215 -0.584423,-0.67522 -1.435108,-1.70208 -1.890411,-2.2819 -0.455302,-0.57982 -1.185882,-1.55852 -1.623511,-2.17487 -0.437628,-0.61637 -1.1697647,-1.70406 -1.6269707,-2.41711 -0.457205,-0.71305 -1.157517,-1.86796 -1.556248,-2.56646 -0.398732,-0.6985 -1.001798,-1.82245 -1.340147,-2.49767 -0.33835,-0.67522 -0.841575,-1.72297 -1.118279,-2.32833 -0.276704,-0.60537 -0.799736,-1.86267 -1.162294,-2.794 -0.362557,-0.93134 -0.834419,-2.22674 -1.048581,-2.87867 -0.214162,-0.65193 -0.558421,-1.79493 -0.765021,-2.54 -0.206599,-0.74507 -0.510996,-1.94522 -0.676437,-2.667 -0.165441,-0.72178 -0.400517,-1.86478 -0.522391,-2.54 -0.121875,-0.67522 -0.313547,-1.90327 -0.425938,-2.72902 -0.112391,-0.82574 -0.266546,-2.27354 -0.342568,-3.21733 -0.09039,-1.12219 -0.13822,-2.68281 -0.13822,-4.50998 0,-1.82717 0.04783,-3.38779 0.13822,-4.50998 0.07602,-0.94379 0.230177,-2.39159 0.342568,-3.217337 0.112391,-0.825743 0.304063,-2.0538 0.425938,-2.729017 0.121874,-0.675217 0.35695,-1.818217 0.522391,-2.54 0.165441,-0.721783 0.469838,-1.921933 0.676437,-2.667 0.2066,-0.745067 0.550859,-1.888066 0.765021,-2.54 0.214162,-0.651933 0.686024,-1.947333 1.048581,-2.878666 0.362558,-0.931334 0.88559,-2.188634 1.162294,-2.794 0.276704,-0.605367 0.779929,-1.653117 1.118279,-2.328334 0.338349,-0.675216 0.941415,-1.799166 1.340147,-2.497666 0.398731,-0.6985 1.099043,-1.853404 1.556248,-2.566454 0.457206,-0.71305 1.1893427,-1.800749 1.6269707,-2.41711 0.437629,-0.61636 1.168209,-1.595055 1.623511,-2.174878 0.455303,-0.579824 1.305988,-1.606675 1.890411,-2.281891 0.584423,-0.675217 1.825107,-1.990186 2.757075,-2.922153 0.931967,-0.931968 2.246936,-2.172652 2.922153,-2.757075 0.675216,-0.584423 1.702067,-1.435108 2.281891,-1.890411 0.579823,-0.455302 1.558518,-1.185882 2.174878,-1.623511 0.616361,-0.437628 1.70406,-1.169765 2.41711,-1.626971 0.71305,-0.457205 1.867954,-1.157517 2.566454,-1.556248 0.6985,-0.398732 1.82245,-1.001798 2.497666,-1.340147 0.675217,-0.33835 1.722967,-0.841575 2.328334,-1.118279 0.605366,-0.276704 1.862666,-0.799736 2.794,-1.162294 0.931333,-0.362557 2.226733,-0.834419 2.878666,-1.048581 0.651934,-0.214162 1.794933,-0.558421 2.54,-0.765021 0.745067,-0.206599 1.945217,-0.510996 2.667,-0.676437 0.721783,-0.165441 1.864783,-0.400517 2.54,-0.522391 0.675217,-0.121875 1.903274,-0.313547 2.729017,-0.425938 0.825743,-0.112391 2.273543,-0.266546 3.217334,-0.342568 1.122189,-0.09039 2.682809,-0.13822 4.509982,-0.13822 1.827173,0 3.387793,0.04783 4.509982,0.13822 0.943791,0.07602 2.391591,0.230177 3.217334,0.342568 0.825743,0.112391 2.0538,0.304063 2.72902,0.425938 0.67521,0.121874 1.81821,0.35695 2.54,0.522391 0.72178,0.165441 1.92193,0.469838 2.667,0.676437 0.74506,0.2066 1.88806,0.550859 2.54,0.765021 0.65193,0.214162 1.94733,0.686024 2.87866,1.048581 0.93134,0.362558 2.18864,0.88559 2.794,1.162294 0.60537,0.276704 1.65312,0.779929 2.32834,1.118279 0.67521,0.338349 1.79916,0.941415 2.49766,1.340147 0.6985,0.398731 1.85341,1.099043 2.56646,1.556248 0.71305,0.457206 1.80074,1.189343 2.41711,1.626971 0.61635,0.437629 1.59505,1.168209 2.17487,1.623511 0.57983,0.455303 1.60668,1.305988 2.2819,1.890411 0.67521,0.584423 1.99018,1.825107 2.92215,2.757075 0.931968,0.931967 2.172648,2.246936 2.757068,2.922153 0.58442,0.675216 1.43511,1.702067 1.89042,2.281891 0.4553,0.579823 1.18509,1.557417 1.62177,2.172431 0.43667,0.615014 1.13702,1.650994 1.55633,2.302178 0.41932,0.651184 1.10547,1.777409 1.52479,2.502723 0.41931,0.725314 1.05415,1.900984 1.41076,2.612598 0.3566,0.711614 0.87477,1.789145 1.15148,2.394512 0.27672,0.605366 0.79976,1.862666 1.16232,2.794 0.36255,0.931333 0.83441,2.226733 1.04857,2.878666 0.21417,0.651934 0.55842,1.794933 0.76503,2.54 0.20659,0.745067 0.51099,1.945217 0.67643,2.667 0.16544,0.721783 0.40052,1.864783 0.5224,2.54 0.12187,0.675217 0.31354,1.903274 0.42593,2.729017 0.11239,0.825747 0.26655,2.273547 0.34257,3.217337 0.0904,1.12219 0.13822,2.68281 0.13822,4.50998 0,1.82717 -0.0478,3.38779 -0.13822,4.50998 -0.076,0.94379 -0.23018,2.39159 -0.34257,3.21733 -0.11239,0.82575 -0.30406,2.0538 -0.42593,2.72902 -0.12188,0.67522 -0.35696,1.81822 -0.5224,2.54 -0.16544,0.72178 -0.46984,1.92193 -0.67643,2.667 -0.20661,0.74507 -0.55086,1.88807 -0.76503,2.54 -0.21416,0.65193 -0.68602,1.94733 -1.04857,2.87867 -0.36256,0.93133 -0.8856,2.18863 -1.16232,2.794 -0.27671,0.60536 -0.79488,1.6829 -1.15148,2.39451 -0.35661,0.71161 -0.99145,1.88728 -1.41076,2.6126 -0.41932,0.72531 -1.10547,1.85154 -1.52479,2.50272 -0.41931,0.65119 -1.11966,1.68716 -1.55633,2.30218 -0.43668,0.61501 -1.16647,1.59261 -1.62177,2.17243 -0.45531,0.57982 -1.306,1.60668 -1.89042,2.2819 -0.58442,0.67521 -1.8251,1.99018 -2.757068,2.92215 -0.93197,0.93196 -2.24694,2.17265 -2.92215,2.75707 -0.67522,0.58442 -1.70207,1.43511 -2.2819,1.89042 -0.57982,0.4553 -1.55852,1.18588 -2.17487,1.6235 -0.61637,0.43764 -1.70406,1.16977 -2.41711,1.62698 -0.71305,0.4572 -1.86796,1.15752 -2.56646,1.55625 -0.6985,0.39872 -1.82245,1.00179 -2.49766,1.34014 -0.67522,0.33835 -1.72297,0.84158 -2.32834,1.11828 -0.60536,0.27671 -1.86266,0.79973 -2.794,1.16229 -0.93133,0.36256 -2.22673,0.83442 -2.87866,1.04858 -0.65194,0.21417 -1.79494,0.55842 -2.54,0.76503 -0.74507,0.20659 -1.94522,0.51115 -2.667,0.6768 -0.72179,0.16564 -1.96004,0.41557 -2.75167,0.55538 -0.79163,0.13981 -2.029883,0.33213 -2.751666,0.42736 -0.721784,0.0952 -2.036233,0.22747 -2.921,0.29389 -0.884767,0.0664 -2.484967,0.1367 -3.556,0.15618 z m -1.312333,-11.21274 c 0.582083,0.007 1.801283,-0.0273 2.709333,-0.0753 0.90805,-0.048 2.2987,-0.16274 3.090333,-0.25492 0.791633,-0.0922 1.991783,-0.26546 2.667,-0.38506 0.675217,-0.11961 1.710973,-0.32701 2.301693,-0.4609 0.59071,-0.13389 1.56226,-0.37967 2.159,-0.54618 0.59673,-0.16651 1.50407,-0.44024 2.01631,-0.6083 0.51223,-0.16804 1.50283,-0.52518 2.20133,-0.79361 0.6985,-0.26844 1.65927,-0.66204 2.13504,-0.87468 0.47576,-0.21262 1.37111,-0.6399 1.98966,-0.94951 0.61855,-0.3096 1.56278,-0.8111 2.0983,-1.11446 0.53552,-0.30335 1.39277,-0.81762 1.905,-1.14283 0.51223,-0.32521 1.36948,-0.89871 1.905,-1.27443 0.53552,-0.37573 1.31657,-0.95015 1.73567,-1.2765 0.4191,-0.32634 1.27635,-1.03218 1.905,-1.56851 0.62865,-0.53634 1.79194,-1.62411 2.5851,-2.41726 0.79316,-0.79316 1.88092,-1.95645 2.41726,-2.5851 0.53633,-0.62866 1.24217,-1.48591 1.56851,-1.90501 0.32635,-0.4191 0.90077,-1.20015 1.2765,-1.73567 0.37572,-0.53551 0.94922,-1.39276 1.27443,-1.905 0.32521,-0.51223 0.83948,-1.36948 1.14284,-1.905 0.30335,-0.53551 0.80485,-1.47975 1.11445,-2.09829 0.309608,-0.61855 0.736888,-1.5139 0.949518,-1.98967 0.21263,-0.47577 0.60623,-1.43654 0.87467,-2.13504 0.26844,-0.6985 0.62557,-1.6891 0.79361,-2.20133 0.16806,-0.51223 0.44179,-1.41957 0.6083,-2.01631 0.16651,-0.59674 0.41229,-1.56829 0.54618,-2.159 0.13389,-0.59071 0.34127,-1.62647 0.46085,-2.30169 0.11959,-0.67522 0.29273,-1.86497 0.38476,-2.64389 0.092,-0.77893 0.21269,-2.33613 0.26813,-3.46045 0.0777,-1.57558 0.0779,-2.51612 9.4e-4,-4.10263 -0.0549,-1.13213 -0.17561,-2.69913 -0.26813,-3.48222 -0.0925,-0.78309 -0.26608,-1.97626 -0.38566,-2.651474 -0.11958,-0.675217 -0.32697,-1.710977 -0.46086,-2.30169 -0.13388,-0.590713 -0.37966,-1.562263 -0.54618,-2.159 -0.16651,-0.596737 -0.44024,-1.504077 -0.60829,-2.01631 -0.16805,-0.512233 -0.52518,-1.502833 -0.79362,-2.201333 -0.26844,-0.6985 -0.66204,-1.659266 -0.87467,-2.135035 -0.21262,-0.475769 -0.6399,-1.371119 -0.949508,-1.989667 -0.3096,-0.618547 -0.81111,-1.562781 -1.11446,-2.098298 -0.30335,-0.535517 -0.81763,-1.392767 -1.14284,-1.905 -0.3252,-0.512233 -0.8987,-1.369483 -1.27443,-1.905 -0.37572,-0.535517 -0.95014,-1.316567 -1.27649,-1.735667 -0.32635,-0.4191 -1.03218,-1.276349 -1.56852,-1.904999 -0.53634,-0.62865 -1.6241,-1.791946 -2.41726,-2.585101 -0.79316,-0.793154 -1.95645,-1.880921 -2.5851,-2.417258 -0.62865,-0.536337 -1.4859,-1.242169 -1.905,-1.568517 -0.4191,-0.326347 -1.20015,-0.90077 -1.73567,-1.276497 -0.53551,-0.375726 -1.39276,-0.94922 -1.905,-1.274429 -0.51223,-0.325211 -1.36948,-0.839487 -1.905,-1.142836 -0.53551,-0.30335 -1.47975,-0.804857 -2.09829,-1.114461 -0.61855,-0.309604 -1.5139,-0.736886 -1.98967,-0.949513 -0.47577,-0.212629 -1.43654,-0.60623 -2.13504,-0.874669 -0.6985,-0.26844 -1.6891,-0.625568 -2.20133,-0.793619 -0.51223,-0.16805 -1.41957,-0.441783 -2.01631,-0.608294 -0.59674,-0.16651 -1.56829,-0.412292 -2.159,-0.546179 -0.59071,-0.133888 -1.626472,-0.341274 -2.301689,-0.460857 -0.675217,-0.119583 -1.86838,-0.293128 -2.651474,-0.385655 -0.783094,-0.09253 -2.350092,-0.213187 -3.482217,-0.268133 -1.586509,-0.077 -2.527057,-0.07679 -4.102631,8.98e-4 -1.124322,0.05544 -2.681524,0.176099 -3.46045,0.268132 -0.778925,0.09203 -1.968678,0.265175 -2.643894,0.384759 -0.675217,0.119583 -1.710977,0.326969 -2.301691,0.460856 -0.590712,0.133888 -1.562262,0.379669 -2.159,0.54618 -0.596736,0.166511 -1.504076,0.440244 -2.016309,0.608294 -0.512233,0.168051 -1.502833,0.525179 -2.201333,0.793619 -0.6985,0.268439 -1.659266,0.66204 -2.135035,0.874669 -0.475769,0.212627 -1.371119,0.639908 -1.989667,0.949512 -0.618548,0.309604 -1.562781,0.811112 -2.098298,1.114462 -0.535517,0.303349 -1.392767,0.817625 -1.905,1.142836 -0.512233,0.325209 -1.369483,0.898703 -1.905,1.274429 -0.535517,0.375726 -1.316567,0.95015 -1.735667,1.276497 -0.4191,0.326347 -1.27635,1.032179 -1.905,1.568517 -0.62865,0.536337 -1.791945,1.624103 -2.5851,2.417258 -0.793155,0.793155 -1.880921,1.95645 -2.417258,2.5851 -0.536337,0.62865 -1.24217,1.4859 -1.568517,1.905 -0.326347,0.4191 -0.900771,1.20015 -1.276497,1.735667 -0.375726,0.535517 -0.94922,1.392767 -1.274429,1.905 -0.325211,0.512233 -0.839487,1.369483 -1.142836,1.905 -0.30335,0.535516 -0.804858,1.47975 -1.114462,2.098298 -0.309603,0.618548 -0.736885,1.513898 -0.949512,1.989667 -0.212629,0.475769 -0.60623,1.436535 -0.874669,2.135035 -0.26844,0.6985 -0.625568,1.6891 -0.793619,2.201333 -0.16805,0.512233 -0.441783,1.419573 -0.608294,2.016309 -0.166511,0.596738 -0.412292,1.568288 -0.54618,2.159 -0.133887,0.590714 -0.341273,1.626474 -0.460856,2.301691 -0.119584,0.675213 -0.292725,1.864973 -0.384759,2.643893 -0.09203,0.77893 -0.212693,2.33613 -0.268132,3.46045 -0.07769,1.57557 -0.0779,2.51612 -8.98e-4,4.10263 0.05495,1.13213 0.175606,2.69912 0.268133,3.48222 0.09253,0.78309 0.266072,1.97626 0.385655,2.65147 0.119583,0.67522 0.326969,1.71098 0.460857,2.30169 0.133887,0.59072 0.379669,1.56227 0.546179,2.159 0.166511,0.59674 0.440244,1.50408 0.608295,2.01631 0.16805,0.51224 0.525178,1.50284 0.793618,2.20134 0.268439,0.6985 0.66204,1.65926 0.874669,2.13503 0.212627,0.47577 0.639909,1.37112 0.949513,1.98967 0.309604,0.61854 0.811111,1.56278 1.114461,2.0983 0.303349,0.53551 0.817625,1.39276 1.142836,1.905 0.325209,0.51223 0.898703,1.36948 1.274429,1.905 0.375727,0.53551 0.95015,1.31656 1.276497,1.73566 0.326348,0.4191 1.03218,1.27635 1.568517,1.90501 0.536337,0.62865 1.624104,1.79194 2.417258,2.5851 0.793155,0.79316 1.956451,1.88092 2.585101,2.41726 0.62865,0.53633 1.4859,1.24217 1.905,1.56851 0.419099,0.32635 1.200149,0.90077 1.735666,1.2765 0.535517,0.37572 1.392767,0.94922 1.905,1.27443 0.512233,0.32521 1.369483,0.83948 1.905,1.14284 0.535517,0.30335 1.479751,0.80485 2.098298,1.11445 0.618548,0.30961 1.513898,0.73689 1.989667,0.94952 0.475769,0.21263 1.436535,0.60623 2.135035,0.87467 0.6985,0.26844 1.6891,0.62557 2.201333,0.79361 0.512233,0.16806 1.419573,0.44179 2.01631,0.6083 0.596737,0.16651 1.583371,0.41589 2.19252,0.55419 0.609149,0.13829 1.75921,0.36202 2.55569,0.49718 0.796481,0.13517 2.019647,0.30822 2.718147,0.38456 0.698499,0.0763 1.841499,0.16933 2.539999,0.20662 0.6985,0.0373 1.74625,0.0732 2.328334,0.0798 z m -4.408793,-9.97756 c -0.415731,0 -0.755874,-0.0149 -0.755874,-0.0331 0,-0.0182 0.153715,-0.21823 0.341589,-0.4445 0.187873,-0.22626 0.445048,-0.62093 0.5715,-0.87705 l 0.229911,-0.46567 0.02302,-7.1755 c 0.01266,-3.94653 -0.0064,-7.17367 -0.04233,-7.17144 -0.03595,0.002 -0.195335,0.0689 -0.354199,0.14817 -0.158864,0.0793 -0.368414,0.25163 -0.465667,0.38306 l -0.176822,0.23897 -0.04233,6.23803 -0.04233,6.23805 -0.200412,0.40704 c -0.110227,0.22387 -0.376927,0.59493 -0.592667,0.82458 -0.21574,0.22965 -0.620854,0.55266 -0.900254,0.71779 -0.2794,0.16514 -0.8128,0.3989 -1.185333,0.51947 -0.543309,0.17585 -0.903501,0.22777 -1.820333,0.26242 l -1.143,0.0432 0.441911,-0.39794 c 0.286871,-0.25832 0.539359,-0.59583 0.719667,-0.962 l 0.277755,-0.56407 0.02382,-4.84909 0.02382,-4.84908 -1.886484,-1.6e-4 c -1.037566,-9e-5 -2.385435,-0.0383 -2.995264,-0.0848 -0.609828,-0.0465 -1.397993,-0.15856 -1.751477,-0.24897 -0.353484,-0.0904 -0.902283,-0.26803 -1.219554,-0.39472 -0.31727,-0.12669 -0.838766,-0.38604 -1.158879,-0.57633 -0.320113,-0.19029 -0.846578,-0.59008 -1.169923,-0.88841 -0.323345,-0.29833 -0.827437,-0.85078 -1.120205,-1.22767 -0.292769,-0.37688 -0.686357,-0.93289 -0.87464,-1.23557 -0.188283,-0.30269 -0.787718,-1.33002 -1.332077,-2.28298 -0.544358,-0.95295 -1.176816,-2.00325 -1.405463,-2.334 -0.228646,-0.33074 -0.664068,-0.88896 -0.967605,-1.24047 -0.303536,-0.35152 -0.778384,-0.81707 -1.055217,-1.03456 -0.276833,-0.2175 -0.665259,-0.48742 -0.86317,-0.59984 -0.297442,-0.16895 -0.333329,-0.21456 -0.206962,-0.26305 0.08408,-0.0323 0.482666,-0.0347 0.885746,-0.005 0.40308,0.0292 0.980523,0.12532 1.283206,0.21352 0.302683,0.0882 0.763466,0.25552 1.023961,0.3718 0.260495,0.11628 0.743614,0.38929 1.073598,0.60668 0.329983,0.2174 0.916951,0.67263 1.304372,1.01163 0.387421,0.339 1.030327,0.91833 1.428678,1.28741 0.398352,0.36907 0.969852,0.88291 1.27,1.14186 0.300149,0.25896 0.736224,0.60522 0.969058,0.76948 0.232833,0.16425 0.632883,0.41345 0.889,0.55376 0.256116,0.14032 0.675216,0.33647 0.931333,0.43588 0.256116,0.0994 0.744382,0.23843 1.085035,0.30891 0.471908,0.0976 1.21801,0.12811 3.133803,0.12811 h 2.514435 l 0.179696,-0.74083 c 0.09883,-0.40746 0.260441,-0.95312 0.359128,-1.21257 0.09869,-0.25945 0.337587,-0.7357 0.530887,-1.05833 0.1933,-0.32263 0.443643,-0.7009 0.556316,-0.8406 0.112675,-0.1397 0.528244,-0.58218 0.923489,-0.98329 l 0.718626,-0.72929 -0.534541,-0.0571 c -0.293998,-0.0314 -1.079368,-0.15237 -1.745266,-0.26877 -0.665899,-0.11639 -1.749272,-0.34697 -2.407496,-0.5124 -0.658223,-0.16542 -1.694547,-0.4728 -2.302941,-0.68306 -0.608394,-0.21026 -1.582421,-0.59868 -2.164505,-0.86317 -0.582083,-0.26449 -1.421962,-0.69524 -1.866397,-0.95722 -0.444435,-0.26199 -1.130235,-0.71387 -1.524,-1.00418 -0.393765,-0.29031 -1.037109,-0.81756 -1.429654,-1.17166 -0.392544,-0.3541 -0.999662,-0.98672 -1.349148,-1.40582 -0.349487,-0.4191 -0.879889,-1.1383 -1.178671,-1.59822 l -0.543239,-0.83622 -2.891278,0.0472 c -2.15727,0.0352 -3.256682,0.0916 -4.330612,0.22209 -0.791633,0.0962 -1.877483,0.25195 -2.413,0.34617 -0.535517,0.0942 -1.327434,0.25177 -1.759818,0.3501 -0.432382,0.0983 -0.805487,0.15944 -0.82912,0.13581 -0.02363,-0.0236 -0.06425,-0.1741 -0.09026,-0.33436 l -0.04729,-0.2914 1.596073,-0.30866 c 0.877841,-0.16977 1.862775,-0.34683 2.188741,-0.39347 0.325967,-0.0466 0.935567,-0.12427 1.354667,-0.17253 0.4191,-0.0483 1.31445,-0.12542 1.989666,-0.17147 0.675217,-0.046 2.037292,-0.0841 3.026834,-0.0846 0.989541,-4.2e-4 1.799166,-0.0343 1.799166,-0.0753 0,-0.0409 -0.09804,-0.28859 -0.217873,-0.55033 -0.119831,-0.26174 -0.262706,-0.47646 -0.3175,-0.47715 -0.05479,-6.8e-4 -0.652077,-0.0393 -1.327293,-0.0859 -0.675217,-0.0465 -2.542117,-0.0851 -4.148667,-0.0857 -1.60655,-6e-4 -3.4163,0.0358 -4.021666,0.081 -0.605367,0.0451 -1.491192,0.10874 -1.9685,0.14139 l -0.867834,0.0594 v -0.33475 -0.33471 l 1.375834,-0.10894 c 0.756708,-0.0599 2.804583,-0.12823 4.550833,-0.15181 1.781443,-0.024 3.824512,-0.004 4.654811,0.0453 0.813897,0.0485 1.49718,0.0709 1.518406,0.0496 0.02123,-0.0212 -0.08286,-0.44751 -0.231314,-0.9473 -0.148449,-0.49979 -0.343687,-1.25161 -0.433861,-1.67071 -0.09018,-0.4191 -0.222104,-1.2192 -0.293178,-1.778 -0.07107,-0.5588 -0.154603,-1.6256 -0.185622,-2.37066 -0.03462,-0.83148 -0.01767,-1.81246 0.04388,-2.54 0.05515,-0.651937 0.176327,-1.604437 0.269279,-2.11667 0.09295,-0.512233 0.322157,-1.445358 0.509346,-2.073611 0.187189,-0.628253 0.560029,-1.599803 0.828534,-2.159 0.268505,-0.559197 0.652173,-1.283422 0.852595,-1.609389 0.200423,-0.325967 0.570393,-0.866633 0.822154,-1.201483 0.251763,-0.334849 0.624911,-0.794738 0.829218,-1.021978 l 0.371468,-0.413162 -0.160285,-0.719342 c -0.08816,-0.395639 -0.218892,-1.166425 -0.290523,-1.712859 -0.07177,-0.547493 -0.130239,-1.620225 -0.130239,-2.389516 0,-0.7678 0.0401,-1.765974 0.0891,-2.218163 0.04901,-0.45219 0.201039,-1.374613 0.337852,-2.04983 0.136814,-0.675217 0.309713,-1.429659 0.384218,-1.67654 l 0.135465,-0.448873 0.606182,0.05204 c 0.333401,0.02862 0.98369,0.108539 1.445088,0.177596 0.461397,0.06906 1.166247,0.201585 1.566333,0.294506 0.400085,0.09292 1.088751,0.284374 1.530367,0.425452 0.441616,0.141078 1.222666,0.427715 1.735666,0.63697 0.513002,0.209255 1.42867,0.639192 2.034821,0.955414 0.60615,0.316224 1.467286,0.809164 1.913634,1.095424 l 0.811543,0.520473 1.094679,-0.206275 c 0.602073,-0.113451 1.664987,-0.283374 2.362032,-0.377606 0.697044,-0.09423 1.800753,-0.216433 2.452686,-0.27156 0.651934,-0.05513 2.233084,-0.10023 3.513667,-0.10023 1.280583,0 2.861733,0.04498 3.513667,0.09996 0.651933,0.05498 1.775883,0.176577 2.497666,0.270221 0.721783,0.09364 1.832954,0.265089 2.469269,0.380989 l 1.156934,0.210727 0.88996,-0.586549 c 0.48947,-0.322602 1.37855,-0.834981 1.97573,-1.138621 0.59717,-0.303641 1.46677,-0.702122 1.93244,-0.885516 0.46567,-0.183393 1.17052,-0.432015 1.56633,-0.552494 0.39582,-0.120479 1.02447,-0.2951 1.397,-0.388046 0.37254,-0.09295 1.02024,-0.228692 1.43934,-0.301656 0.4191,-0.07296 1.08291,-0.170626 1.47515,-0.217028 0.39223,-0.0464 0.72623,-0.07129 0.74222,-0.0553 0.016,0.01599 0.12358,0.355088 0.2391,0.753553 0.11552,0.398467 0.30311,1.156668 0.41688,1.684892 0.11376,0.528224 0.27298,1.417607 0.35382,1.976407 0.0986,0.681386 0.14789,1.559749 0.14971,2.667 0.002,0.90805 -0.0463,2.001718 -0.10628,2.430374 l -0.10899,0.779373 0.50141,0.65996 c 0.27578,0.362978 0.72009,0.99955 0.98737,1.414606 0.26728,0.415055 0.70864,1.177055 0.98081,1.693333 0.27218,0.516278 0.63055,1.268876 0.79638,1.672439 0.16584,0.403564 0.45047,1.203664 0.63251,1.778 0.18205,0.574336 0.40948,1.407704 0.50541,1.851927 0.0959,0.444223 0.23145,1.244323 0.30116,1.778 0.0697,0.533681 0.15215,1.465621 0.18318,2.070991 0.0316,0.61729 0.013,1.76687 -0.0424,2.61766 -0.0544,0.83434 -0.1735,1.95829 -0.26475,2.49766 -0.0913,0.53937 -0.26685,1.37168 -0.3902,1.84957 -0.12334,0.47789 -0.20588,0.88727 -0.18342,0.90973 0.0225,0.0225 0.76175,-0.002 1.64288,-0.0538 1.02892,-0.0608 2.79848,-0.0743 4.94638,-0.038 1.83938,0.0311 3.87773,0.10249 4.52967,0.15854 l 1.18533,0.10193 -0.0238,0.29186 c -0.0131,0.16053 -0.0405,0.30863 -0.061,0.32913 -0.0205,0.0205 -0.94326,-0.0286 -2.05058,-0.1091 -1.35662,-0.0986 -2.93847,-0.14442 -4.84965,-0.14042 -1.55998,0.003 -3.38878,0.0443 -4.064,0.0911 -0.67522,0.0469 -1.2957,0.0858 -1.37884,0.0865 -0.0967,7.6e-4 -0.20672,0.13099 -0.30524,0.36109 -0.0847,0.19791 -0.17956,0.44037 -0.21071,0.53881 l -0.0566,0.17898 2.60555,0.0491 c 1.43305,0.027 3.02465,0.0911 3.53688,0.14242 0.51223,0.0513 1.46473,0.16989 2.11667,0.26351 0.65193,0.0936 1.75683,0.28501 2.45533,0.42532 0.6985,0.14032 1.29758,0.28196 1.3313,0.31476 0.0337,0.0328 0.0304,0.17302 -0.007,0.3116 -0.0529,0.19461 -0.1151,0.25021 -0.27297,0.24422 -0.11242,-0.004 -0.79495,-0.12654 -1.51673,-0.27173 -0.72179,-0.14518 -1.73144,-0.32123 -2.24367,-0.39122 -0.51223,-0.07 -1.38853,-0.17529 -1.94733,-0.23401 -0.58782,-0.0618 -2.155,-0.10772 -3.71863,-0.10903 l -2.70262,-0.002 -0.40669,0.70714 c -0.22367,0.38892 -0.62674,1.01575 -0.8957,1.39295 -0.26897,0.37721 -0.92718,1.12875 -1.4627,1.6701 -0.53551,0.54134 -1.27846,1.21067 -1.651,1.48738 -0.37253,0.27672 -0.88793,0.64 -1.14533,0.80731 -0.25741,0.1673 -0.86701,0.51704 -1.35467,0.7772 -0.48766,0.26016 -1.25446,0.6259 -1.70398,0.81275 -0.44953,0.18685 -1.26868,0.49062 -1.82033,0.67503 -0.55166,0.18441 -1.46022,0.45014 -2.01902,0.59052 -0.5588,0.14037 -1.45415,0.33534 -1.98967,0.43325 -0.53551,0.0979 -1.05915,0.19625 -1.16362,0.21851 l -0.189966,0.0405 0.539266,0.70678 c 0.2966,0.38873 0.67886,0.95638 0.84947,1.26146 0.1706,0.30507 0.42037,0.85656 0.55503,1.22554 0.13465,0.36897 0.3046,0.98596 0.37766,1.37108 0.114,0.60094 0.13283,1.70028 0.13283,7.753 v 7.05276 l 0.15648,0.50278 c 0.0861,0.27653 0.27874,0.68047 0.42816,0.89765 0.14943,0.21718 0.48859,0.6079 0.75369,0.86826 l 0.482,0.47338 -0.93133,-0.0484 c -0.51223,-0.0266 -1.24945,-0.109 -1.63827,-0.18302 -0.38881,-0.074 -0.97936,-0.23273 -1.31233,-0.35268 -0.332969,-0.11996 -0.797967,-0.34113 -1.033328,-0.49148 -0.235362,-0.15037 -0.566668,-0.43548 -0.736238,-0.63359 -0.169571,-0.1981 -0.376227,-0.53672 -0.459237,-0.75248 -0.138178,-0.35916 -0.154658,-0.90826 -0.195095,-6.50065 l -0.04415,-6.10835 -0.169333,-0.18983 c -0.09313,-0.10441 -0.291935,-0.24173 -0.44178,-0.30515 -0.149847,-0.0634 -0.311772,-0.11532 -0.359834,-0.11532 -0.05934,0 -0.08718,2.16668 -0.08675,6.75217 4.24e-4,4.23481 0.03323,6.95299 0.08804,7.29081 0.04807,0.29624 0.181776,0.72488 0.297122,0.9525 0.115346,0.22762 0.373997,0.58531 0.574779,0.79486 l 0.365059,0.381 h -0.835724 c -0.459647,0 -1.125874,-0.0599 -1.480502,-0.13319 -0.354629,-0.0733 -0.847361,-0.20898 -1.094961,-0.30161 -0.2476,-0.0926 -0.675924,-0.33462 -0.951831,-0.53774 -0.275908,-0.2031 -0.625553,-0.54937 -0.776989,-0.76948 -0.151436,-0.2201 -0.345754,-0.62643 -0.431819,-0.90296 l -0.156481,-0.50278 v -6.36595 c 0,-5.62465 -0.01535,-6.38786 -0.131801,-6.55412 -0.09076,-0.12958 -0.21849,-0.18817 -0.410212,-0.18817 -0.162192,0 -0.336901,0.0646 -0.418532,0.15483 -0.127835,0.14126 -0.140122,0.72739 -0.140122,6.6845 0,4.3795 -0.03029,6.67089 -0.09198,6.95855 -0.05059,0.23588 -0.212513,0.60829 -0.359833,0.82758 -0.147321,0.21929 -0.476319,0.54387 -0.731108,0.72129 -0.267512,0.18628 -0.750468,0.40884 -1.143,0.52675 -0.373861,0.11229 -0.977779,0.24429 -1.342041,0.29333 -0.364261,0.049 -1.002436,0.0892 -1.418166,0.0892 z m -5.962874,-15.67693 c 0.1397,-0.0388 0.301625,-0.13503 0.359834,-0.21395 0.05821,-0.0789 0.105833,-0.17682 0.105833,-0.21754 0,-0.0407 -0.03781,-0.1447 -0.08402,-0.23104 -0.04621,-0.0863 -0.217887,-0.20117 -0.381504,-0.25517 -0.250664,-0.0827 -0.347381,-0.0738 -0.614484,0.0567 -0.206779,0.10104 -0.326615,0.22276 -0.344662,0.35006 -0.01522,0.10734 0.01815,0.25037 0.07415,0.31784 0.056,0.0675 0.220847,0.15437 0.366332,0.19311 0.145486,0.0387 0.378819,0.0387 0.518519,-3e-5 z m -2.665282,0.0136 c 0.144878,0 0.346635,-0.0438 0.448348,-0.0973 0.101714,-0.0535 0.212926,-0.13926 0.247138,-0.1905 0.03421,-0.0512 0.06279,-0.17672 0.0635,-0.27886 6.77e-4,-0.10213 -0.08338,-0.24501 -0.186876,-0.3175 -0.103494,-0.0725 -0.333826,-0.1318 -0.511848,-0.1318 -0.230768,0 -0.383329,0.0597 -0.531494,0.20782 -0.1143,0.1143 -0.207819,0.24938 -0.207819,0.30018 0,0.0508 0.09352,0.18588 0.207819,0.30018 0.131583,0.13159 0.304447,0.20782 0.471232,0.20782 z m -2.372028,-0.0847 c 0.144129,0 0.374461,-0.0581 0.511848,-0.12917 0.164023,-0.0848 0.24935,-0.19384 0.2485,-0.3175 -6.78e-4,-0.10358 -0.02929,-0.23025 -0.0635,-0.28149 -0.03421,-0.0512 -0.145425,-0.13696 -0.247138,-0.1905 -0.101714,-0.0535 -0.303471,-0.0973 -0.448348,-0.0973 -0.166786,0 -0.339649,0.0762 -0.471233,0.20782 -0.1143,0.1143 -0.207819,0.24938 -0.207819,0.30018 0,0.0508 0.09352,0.18588 0.207819,0.30018 0.131121,0.13112 0.304531,0.20782 0.469871,0.20782 z m -2.179002,-0.67733 c 0.230767,0 0.383329,-0.0597 0.531494,-0.20782 0.1143,-0.1143 0.207818,-0.24343 0.207818,-0.28695 0,-0.0435 -0.06706,-0.16196 -0.149031,-0.26319 -0.09011,-0.11128 -0.28259,-0.20186 -0.486834,-0.2291 -0.263889,-0.0352 -0.388746,-0.005 -0.570634,0.13847 -0.136912,0.10793 -0.232834,0.26624 -0.232834,0.38426 0,0.11144 0.0837,0.25935 0.188173,0.33253 0.103494,0.0725 0.333826,0.1318 0.511848,0.1318 z m -1.861468,-1.19202 c 0.03642,0.004 0.198345,-0.0485 0.359833,-0.116 0.210157,-0.0878 0.293614,-0.17616 0.293614,-0.31083 0,-0.10348 -0.06305,-0.25783 -0.140122,-0.34299 -0.08947,-0.0989 -0.25781,-0.15483 -0.465667,-0.15483 -0.212655,0 -0.384264,0.0587 -0.494877,0.16933 -0.09313,0.0931 -0.169334,0.22058 -0.169334,0.28321 0,0.0626 0.06668,0.17197 0.148167,0.24296 0.08149,0.071 0.205317,0.15008 0.275167,0.17577 0.06985,0.0257 0.156798,0.0497 0.193219,0.0534 z M 37.04443,125.4025 c 0.201026,0 0.365105,-0.0582 0.460176,-0.16327 0.09126,-0.10084 0.127328,-0.22762 0.09433,-0.33159 -0.02938,-0.0926 -0.166167,-0.20763 -0.303965,-0.25566 -0.172137,-0.06 -0.328943,-0.06 -0.501081,0 -0.137797,0.048 -0.274581,0.16308 -0.303964,0.25566 -0.033,0.10397 0.0031,0.23075 0.09433,0.33159 0.09507,0.10505 0.25915,0.16327 0.460176,0.16327 z m -1.172211,-1.27 c 0.132482,0 0.317951,-0.0771 0.412152,-0.17128 0.135583,-0.13558 0.152717,-0.20594 0.08222,-0.33766 -0.04898,-0.0915 -0.18601,-0.19073 -0.304517,-0.22048 -0.118507,-0.0297 -0.308976,-0.0115 -0.423266,0.0406 -0.114289,0.0521 -0.230401,0.15358 -0.258025,0.22557 -0.02762,0.072 0.01745,0.20567 0.100166,0.29707 0.08271,0.0914 0.258785,0.16618 0.391268,0.16618 z m -1.029122,-1.10067 c 0.07533,0 0.205543,-0.0501 0.289357,-0.11143 0.08381,-0.0613 0.138352,-0.18432 0.121194,-0.27342 -0.01716,-0.0891 -0.137611,-0.19941 -0.267675,-0.24515 -0.160211,-0.0563 -0.282824,-0.054 -0.380178,0.007 -0.07903,0.0498 -0.157366,0.16009 -0.174072,0.24515 -0.01671,0.0851 0.0382,0.20481 0.122016,0.2661 0.08381,0.0613 0.214025,0.11143 0.289358,0.11143 z m -1.08888,-0.93391 c 0.02977,0.001 0.14283,-0.0693 0.251254,-0.15705 0.169004,-0.13685 0.180944,-0.17914 0.08368,-0.29634 -0.0624,-0.0752 -0.181872,-0.1367 -0.265496,-0.1367 -0.08362,0 -0.212307,0.0231 -0.285966,0.0514 -0.07366,0.0283 -0.133925,0.12162 -0.133925,0.20746 0,0.0858 0.06668,0.1949 0.148167,0.24237 0.08149,0.0475 0.172521,0.0875 0.202287,0.0889 z m -1.07012,-0.75942 c 0.05205,0 0.168592,-0.0572 0.258984,-0.127 l 0.164349,-0.127 -0.164349,-0.127 c -0.09039,-0.0699 -0.206935,-0.127 -0.258984,-0.127 -0.05205,0 -0.168593,0.0571 -0.258985,0.127 l -0.164349,0.127 0.164349,0.127 c 0.09039,0.0699 0.206935,0.127 0.258985,0.127 z"
       id="path135282"
       inkscape:export-filename="github-icon.svg"
       inkscape:export-xdpi="96"
       inkscape:export-ydpi="96" /></g></svg>
